<?xml version="1.0" encoding="UTF-8"?>
<svg width="108px" height="19px" viewBox="0 0 108 19" version="1.1" xmlns="http://www.w3.org/2000/svg" xmlns:xlink="http://www.w3.org/1999/xlink">
    <title>微信投件</title>
    <g id="页面-1" stroke="none" stroke-width="1" fill="none" fill-rule="evenodd">
        <g id="画板备份" transform="translate(-204.000000, -135.000000)" fill="#FFFFFF" fill-rule="nonzero">
            <path d="M222.98,139.52 C223.513333,139.52 223.99,139.356667 224.41,139.03 C224.83,138.703333 225.113333,138.28 225.26,137.76 L225.26,137.76 L228.14,137.76 C228.513333,137.76 228.833333,137.64 229.1,137.4 C229.366667,137.16 229.533333,136.86 229.6,136.5 L229.6,136.5 L229.64,136.16 L225.7,136.16 L225.98,135.14 L222.32,135.14 L221.12,139.52 L222.98,139.52 Z M218.98,140.38 C219.446667,140.38 219.866667,140.213333 220.24,139.88 C220.626667,139.546667 220.853333,139.14 220.92,138.66 L220.92,138.66 L221.38,135.32 L219.22,135.32 C219.06,135.32 218.923333,135.366667 218.81,135.46 C218.696667,135.553333 218.633333,135.68 218.62,135.84 L218.62,135.84 L218.24,138.52 C218.226667,138.613333 218.18,138.7 218.1,138.78 C218.033333,138.846667 217.94,138.88 217.82,138.88 L217.82,138.88 L217.674,138.88 L218.2,135.16 L215.6,135.16 C215.4,135.16 215.226667,135.226667 215.08,135.36 C214.933333,135.493333 214.846667,135.66 214.82,135.86 L214.82,135.86 L214.394,138.88 L214.24,138.88 C214.16,138.88 214.0875,138.8575 214.0225,138.8125 L213.96,138.76 C213.906667,138.693333 213.886667,138.613333 213.9,138.52 L213.9,138.52 L214.36,135.32 L212.54,135.32 C212.286667,135.32 212.07,135.396667 211.89,135.55 C211.71,135.703333 211.6,135.906667 211.56,136.16 L211.56,136.16 L211.2,138.66 C211.133333,139.14 211.246667,139.546667 211.54,139.88 C211.82,140.213333 212.2,140.38 212.68,140.38 L212.68,140.38 L218.98,140.38 Z M207.92,138.8 C208.52,138.8 209.013333,138.54 209.4,138.02 L209.4,138.02 L211.34,135.16 L207.94,135.16 C207.7,135.16 207.5,135.273333 207.34,135.5 L207.34,135.5 L205.12,138.8 L207.92,138.8 Z M220.18,154 C221.833333,154 223.086667,153.153333 223.94,151.46 L223.94,151.46 L223.96,151.52 C224.16,152.253333 224.553333,152.85 225.14,153.31 C225.726667,153.77 226.393333,154 227.14,154 L227.14,154 L225.52,147.56 L229.18,138.56 L226.78,138.56 C226.18,138.56 225.733333,138.873333 225.44,139.5 L225.44,139.5 L224.24,142.66 L223.96,141.42 C223.88,141.113333 223.723333,140.866667 223.49,140.68 C223.256667,140.493333 222.986667,140.4 222.68,140.4 L222.68,140.4 L221.16,140.4 L222.52,146.52 L219.36,154 L220.18,154 Z M207.68,154 C207.893333,154 208.076667,153.933333 208.23,153.8 C208.383333,153.666667 208.473333,153.493333 208.5,153.28 L208.5,153.28 L209.92,143.22 L208.8,143.22 L210.78,139.12 L207.4,139.12 C207.16,139.12 206.966667,139.24 206.82,139.48 L206.82,139.48 L204.38,144.08 L206.24,144.08 L204.86,154 L207.68,154 Z M219.5,142.74 C219.7,142.74 219.873333,142.676667 220.02,142.55 C220.166667,142.423333 220.26,142.26 220.3,142.06 L220.3,142.06 L220.42,141.16 L211.7,141.16 C211.5,141.16 211.326667,141.223333 211.18,141.35 C211.033333,141.476667 210.94,141.646667 210.9,141.86 L210.9,141.86 L210.78,142.74 L219.5,142.74 Z M210.9,154 C211.433333,154 211.92,153.806667 212.36,153.42 C212.8,153.046667 213.053333,152.586667 213.12,152.04 L213.12,152.04 L214,145.74 L214.08,145.24 L214.3,143.66 L211.06,143.66 L210.1,150.5 L209.92,151.92 L209.62,154 L210.9,154 Z M219.02,154 L219.24,152.42 L219.04,152.42 C218.906667,152.42 218.8,152.366667 218.72,152.26 C218.64,152.166667 218.606667,152.053333 218.62,151.92 L218.62,151.92 L219.78,143.66 L214.68,143.66 L214.46,145.24 L216.36,145.24 L215.4,152.04 C215.333333,152.586667 215.46,153.046667 215.78,153.42 C216.1,153.806667 216.526667,154 217.06,154 L217.06,154 L219.02,154 Z M255.89,137.84 C256.116667,137.84 256.316667,137.763333 256.49,137.61 C256.663333,137.456667 256.763333,137.26 256.79,137.02 L256.79,137.02 L256.91,136.26 L250.73,136.26 L250.79,135.84 C250.803333,135.626667 250.733333,135.456667 250.58,135.33 C250.426667,135.203333 250.243333,135.14 250.03,135.14 L250.03,135.14 L246.59,135.14 L246.45,136.26 L240.89,136.26 C240.703333,136.26 240.543333,136.323333 240.41,136.45 C240.276667,136.576667 240.196667,136.733333 240.17,136.92 L240.17,136.92 L240.03,137.84 L255.89,137.84 Z M236.19,154 L238.07,140.54 L236.93,140.54 L239.47,135.14 L235.15,135.14 L231.79,141.96 L233.75,141.96 L232.05,154 L236.19,154 Z M255.45,140.54 C255.636667,140.54 255.806667,140.466667 255.96,140.32 C256.113333,140.173333 256.21,140.006667 256.25,139.82 L256.25,139.82 L256.37,138.94 L240.53,138.94 C240.396667,138.94 240.276667,138.976667 240.17,139.05 C240.063333,139.123333 240.003333,139.226667 239.99,139.36 L239.99,139.36 L239.81,140.54 L255.45,140.54 Z M255.13,143.06 C255.303333,143.06 255.463333,142.996667 255.61,142.87 C255.756667,142.743333 255.85,142.586667 255.89,142.4 L255.89,142.4 L256.01,141.48 L240.45,141.48 C240.236667,141.48 240.046667,141.546667 239.88,141.68 C239.713333,141.813333 239.616667,141.986667 239.59,142.2 L239.59,142.2 L239.47,143.06 L255.13,143.06 Z M251.69,154 C252.29,154 252.843333,153.78 253.35,153.34 C253.856667,152.9 254.156667,152.366667 254.25,151.74 L254.25,151.74 L255.31,144.18 L244.37,144.18 L244.15,145.76 L250.81,145.76 L250.01,151.46 C249.983333,151.686667 249.89,151.873333 249.73,152.02 C249.583333,152.18 249.41,152.26 249.21,152.26 L249.21,152.26 L243.45,152.26 C243.25,152.26 243.096667,152.18 242.99,152.02 C242.87,151.873333 242.836667,151.686667 242.89,151.46 L242.89,151.46 L243.63,146.1 L243.63,146.08 L243.69,145.76 L243.91,144.18 L239.63,144.18 L238.57,151.74 C238.49,152.366667 238.636667,152.9 239.01,153.34 C239.383333,153.78 239.876667,154 240.49,154 L240.49,154 L251.69,154 Z M262.5,153.96 C263.206667,153.96 263.826667,153.653333 264.36,153.04 C264.893333,152.426667 265.2,151.7 265.28,150.86 L265.88,146.64 L266.38,146.58 C266.58,146.553333 266.746667,146.48 266.88,146.36 C267.013333,146.226667 267.086667,146.066667 267.1,145.88 L267.34,144.42 L266.2,144.58 L267.04,138.7 L267.62,138.7 C267.793333,138.7 267.946667,138.633333 268.08,138.5 C268.213333,138.366667 268.293333,138.22 268.32,138.06 L268.52,136.62 L267.32,136.62 L267.54,135.14 L264.32,135.14 C263.88,135.14 263.6,135.4 263.48,135.92 L263.34,136.62 L261.9,136.62 C261.74,136.62 261.606667,136.68 261.5,136.8 C261.406667,136.906667 261.34,137.026667 261.3,137.16 L260.96,138.7 L263.08,138.7 L262.12,145.1 L260.58,145.32 C260.433333,145.333333 260.306667,145.393333 260.2,145.5 C260.08,145.593333 260.006667,145.713333 259.98,145.86 L259.6,147.46 L261.84,147.18 L261.28,150.94 C261.253333,151.126667 261.206667,151.286667 261.14,151.42 C261.086667,151.553333 260.993333,151.68 260.86,151.8 C260.753333,151.933333 260.633333,152.013333 260.5,152.04 C260.366667,152.066667 260.22,152.08 260.06,152.08 L259.1,152.08 L258.9,153.96 L262.5,153.96 Z M270.48,141.56 C271.066667,141.56 271.6,141.346667 272.08,140.92 C272.56,140.48 272.84,139.953333 272.92,139.34 L272.92,139.34 L273.48,135.16 L269.6,135.16 L268.52,141.56 L270.48,141.56 Z M283.94,141.56 L284.16,139.96 L283.82,139.96 C283.7,139.96 283.6,139.906667 283.52,139.8 C283.44,139.706667 283.406667,139.593333 283.42,139.46 L283.42,139.46 L284,135.16 L274,135.16 L273.78,136.76 L279.88,136.76 L279.54,139.34 C279.46,139.953333 279.6,140.48 279.96,140.92 C280.32,141.346667 280.793333,141.56 281.38,141.56 L281.38,141.56 L283.94,141.56 Z M270.5,154 C271.433333,154 272.3,153.706667 273.1,153.12 L273.1,153.12 L274.74,151.72 L276.16,153.16 C276.773333,153.72 277.466667,154 278.24,154 L278.24,154 L282.24,154 L277.7,149.44 L283.38,144.44 L283.68,142.3 L268.42,142.3 L268.4,142.42 C268.36,142.833333 268.463333,143.186667 268.71,143.48 C268.956667,143.773333 269.266667,143.92 269.64,143.92 L269.64,143.92 L279.18,143.92 L275.24,147.5 L273.62,145.7 C273.086667,145.113333 272.46,144.82 271.74,144.82 L271.74,144.82 L268.28,144.82 L272.54,149.48 L266.7,154 L270.5,154 Z M289.89,154 C290.103333,154 290.286667,153.933333 290.44,153.8 C290.593333,153.666667 290.683333,153.5 290.71,153.3 L292.49,140.98 L291.13,140.98 L293.89,135.14 L290.25,135.14 C289.81,135.14 289.463333,135.36 289.21,135.8 L286.29,141.78 L288.11,141.78 L286.37,154 L289.89,154 Z M302.11,154 C302.35,154 302.563333,153.92 302.75,153.76 C302.936667,153.6 303.05,153.4 303.09,153.16 L303.95,147.12 L308.67,147.12 C309.136667,147.12 309.543333,146.97 309.89,146.67 C310.193333,146.4075 310.394583,146.086302 310.49375,145.706406 L310.53,145.54 L304.19,145.54 L305.17,138.64 L309.45,138.64 C309.93,138.64 310.343333,138.49 310.69,138.19 C310.993333,137.9275 311.194583,137.606302 311.29375,137.226406 L311.33,137.06 L305.41,137.06 L305.67,135.14 L302.39,135.14 C302.11,135.14 301.866667,135.23 301.66,135.41 C301.453333,135.59 301.33,135.813333 301.29,136.08 L301.15,137.06 L299.57,137.06 L300.17,135.68 L296.45,135.68 C296.143333,135.68 295.91,135.833333 295.75,136.14 L293.39,141.58 L295.75,141.58 C296.896667,141.58 297.776667,141.006667 298.39,139.86 L298.89,138.64 L300.93,138.64 L299.93,145.54 L294.65,145.54 C294.183333,145.54 293.773333,145.686667 293.42,145.98 C293.110833,146.236667 292.906302,146.559687 292.806406,146.949062 L292.77,147.12 L299.71,147.12 L298.71,154 L302.11,154 Z" id="微信投件"></path>
        </g>
    </g>
</svg>