<?xml version="1.0" encoding="UTF-8"?>
<svg width="125px" height="25px" viewBox="0 0 125 25" version="1.1" xmlns="http://www.w3.org/2000/svg" xmlns:xlink="http://www.w3.org/1999/xlink">
    <title>微信投件</title>
    <g id="页面-1" stroke="none" stroke-width="1" fill="none" fill-rule="evenodd">
        <g id="画板" transform="translate(-201.000000, -135.000000)" fill="#FFFFFF" fill-rule="nonzero">
            <path d="M230.112,159.032 L230.112,154.2 C229.664,153.816 229.242667,153.426667 228.848,153.032 C228.453333,152.637333 228.096,152.248 227.776,151.864 C229.333333,148.728 230.112,144.984 230.112,140.632 L230.112,140.632 L230.112,138.232 L226.624,138.232 L227.424,135.896 L222.976,135.896 L221.472,140.632 L226.752,140.632 C226.752,142.146667 226.677333,143.522667 226.528,144.76 C226.4,145.997333 226.154667,147.170667 225.792,148.28 C225.642667,147.810667 225.509333,147.325333 225.392,146.824 C225.274667,146.322667 225.194667,145.816 225.152,145.304 C225.088,144.770667 225.034667,144.205333 224.992,143.608 C224.949333,143.010667 224.917333,142.370667 224.896,141.688 L224.896,141.688 L221.696,141.688 C221.738667,142.733333 221.808,143.72 221.904,144.648 C222,145.576 222.133333,146.456 222.304,147.288 C222.645333,148.973333 223.168,150.541333 223.872,151.992 C223.210667,152.888 222.4,153.72 221.44,154.488 L221.44,154.488 L221.44,159.032 C223.168,157.816 224.608,156.472 225.76,155 C226.314667,155.725333 226.976,156.429333 227.744,157.112 C228.085333,157.453333 228.453333,157.778667 228.848,158.088 C229.242667,158.397333 229.664,158.712 230.112,159.032 L230.112,159.032 Z M208.512,159.032 L208.512,146.36 L207.552,146.36 L209.76,141.4 L207.36,141.4 L209.76,135.928 L205.504,135.928 L201.888,143.64 L204.448,143.64 L201.888,149.08 L204.16,149.08 L204.16,159.032 L208.512,159.032 Z M218.624,145.848 C219.221333,145.848 219.733333,145.634667 220.16,145.208 C220.586667,144.781333 220.8,144.269333 220.8,143.672 L220.8,143.672 L220.8,137.08 L217.856,137.08 L217.856,143.128 C217.856,143.469333 217.749333,143.64 217.536,143.64 L217.536,143.64 L217.28,143.64 L217.28,135.928 L213.696,135.928 L213.696,143.64 L213.152,143.64 L213.152,137.08 L210.208,137.08 L210.208,145.848 L218.624,145.848 Z M220.8,149.08 L220.8,146.84 L210.208,146.84 L210.208,149.08 L220.8,149.08 Z M220.192,159.032 L221.056,156.824 L220.416,156.824 C220.138667,156.824 220,156.685333 220,156.408 L220,156.408 L220,150.168 L210.176,150.168 L210.176,155.192 L209.056,158.968 L212.992,158.968 L214.112,155.192 L214.112,152.408 L216.096,152.408 L216.096,156.376 C216.096,156.738667 216.16,157.090667 216.288,157.432 C216.437333,157.752 216.629333,158.029333 216.864,158.264 C217.184,158.541333 217.472,158.733333 217.728,158.84 C218.026667,158.968 218.378667,159.032 218.784,159.032 L218.784,159.032 L220.192,159.032 Z M242.32,159.032 L242.32,141.496 L240.976,141.496 L243.472,135.896 L238.64,135.896 L234.608,144.952 L237.68,144.952 L237.68,159.032 L242.32,159.032 Z M262.768,140.824 L262.768,137.752 L255.824,137.752 L255.408,135.96 L250.576,135.96 L250.992,137.752 L243.536,137.752 L243.536,140.824 L262.768,140.824 Z M262.768,144.728 L262.768,141.656 L243.536,141.656 L243.536,144.728 L262.768,144.728 Z M262.768,148.728 L262.768,145.688 L243.536,145.688 L243.536,148.728 L262.768,148.728 Z M259.792,158.968 C260.197333,158.968 260.586667,158.888 260.96,158.728 C261.333333,158.568 261.653333,158.354667 261.92,158.088 C262.186667,157.821333 262.4,157.506667 262.56,157.144 C262.72,156.781333 262.8,156.386667 262.8,155.96 L262.8,155.96 L262.8,149.72 L243.504,149.72 L243.504,158.968 L259.792,158.968 Z M258.224,156.536 L247.568,156.536 L247.568,152.152 L258.736,152.152 L258.736,156.056 C258.736,156.184 258.688,156.296 258.592,156.392 C258.496,156.488 258.373333,156.536 258.224,156.536 L258.224,156.536 Z M270.912,159.064 C271.381333,159.064 271.829333,158.973333 272.256,158.792 C272.682667,158.610667 273.056,158.36 273.376,158.04 C273.696,157.72 273.952,157.346667 274.144,156.92 C274.336,156.493333 274.432,156.034667 274.432,155.544 L274.432,155.544 L274.432,149.272 L278.848,143.608 L274.432,143.608 L274.432,140.856 L277.984,140.856 L277.984,137.72 L274.432,137.72 L274.432,135.768 L270.336,135.768 L270.336,137.72 L266.944,137.72 L266.944,140.856 L270.336,140.856 L270.336,148.12 L266.208,153.4 L270.336,153.4 L270.336,155.288 C270.336,155.565333 270.24,155.805333 270.048,156.008 C269.856,156.210667 269.621333,156.312 269.344,156.312 L269.344,156.312 L268.8,156.312 L267.584,159.064 L270.912,159.064 Z M282.016,145.336 L283.008,143.256 L283.008,138.648 L288.576,138.648 L288.576,141.848 C288.576,142.338667 288.666667,142.792 288.848,143.208 C289.029333,143.624 289.28,143.992 289.6,144.312 C289.92,144.632 290.293333,144.882667 290.72,145.064 C291.146667,145.245333 291.605333,145.336 292.096,145.336 L292.096,145.336 L292.928,145.336 L294.112,142.968 L293.408,142.968 C293.109333,142.968 292.864,142.872 292.672,142.68 C292.48,142.488 292.384,142.242667 292.384,141.944 L292.384,141.944 L292.384,135.96 L279.2,135.96 L279.2,143.256 L278.208,145.336 L282.016,145.336 Z M294.112,159.16 L294.112,156.056 C293.216,155.714667 292.368,155.378667 291.568,155.048 C290.768,154.717333 289.984,154.370667 289.216,154.008 C290.197333,153.304 291.104,152.525333 291.936,151.672 C292.768,150.818667 293.493333,149.858667 294.112,148.792 L294.112,148.792 L294.112,146.04 L278.176,146.04 L278.176,148.792 L290.336,148.792 C289.653333,149.538667 288.965333,150.194667 288.272,150.76 C287.578667,151.325333 286.858667,151.842667 286.112,152.312 C285.536,151.949333 284.970667,151.549333 284.416,151.112 C283.861333,150.674667 283.306667,150.189333 282.752,149.656 L282.752,149.656 L278.72,149.656 C279.296,150.530667 279.952,151.32 280.688,152.024 C281.424,152.728 282.208,153.389333 283.04,154.008 C282.293333,154.370667 281.514667,154.712 280.704,155.032 C279.893333,155.352 279.04,155.693333 278.144,156.056 L278.144,156.056 L278.144,159.16 C279.488,158.733333 280.837333,158.258667 282.192,157.736 C283.546667,157.213333 284.864,156.610667 286.144,155.928 C287.424,156.610667 288.741333,157.213333 290.096,157.736 C291.450667,158.258667 292.789333,158.733333 294.112,159.16 L294.112,159.16 Z M304.368,159 L304.368,141.304 L303.184,141.304 L305.392,135.928 L301.104,135.928 L297.552,144.6 L300.24,144.6 L300.24,159 L304.368,159 Z M318.416,159 L318.416,151.896 L325.648,151.896 L325.648,148.728 L318.416,148.728 L318.416,144.312 L324.752,144.312 L324.752,141.144 L318.416,141.144 L318.416,136.792 L313.968,136.792 L313.968,141.144 L310.96,141.144 L311.888,137.848 L307.664,137.848 L305.904,144.312 L313.968,144.312 L313.968,148.728 L305.68,148.728 L305.68,151.896 L313.968,151.896 L313.968,159 L318.416,159 Z" id="微信投件"></path>
        </g>
    </g>
</svg>