<?xml version="1.0" encoding="UTF-8"?>
<svg width="42px" height="33px" viewBox="0 0 42 33" version="1.1" xmlns="http://www.w3.org/2000/svg" xmlns:xlink="http://www.w3.org/1999/xlink">
    <title>编组</title>
    <g id="页面-1" stroke="none" stroke-width="1" fill="none" fill-rule="evenodd">
        <g id="画板" transform="translate(-147.000000, -131.000000)" fill-rule="nonzero">
            <g id="编组" transform="translate(147.000000, 131.000000)">
                <path d="M25.7057727,9.15054871 C26.1414515,9.15054871 26.5724492,9.18175482 27,9.22835596 C25.8370551,3.93371821 20.0478634,0 13.4395718,0 C6.05179898,0 0,4.92374265 0,11.1759505 C0,14.7848338 2.01336544,17.7484579 5.3778969,20.0470588 L4.03370992,24 L8.7319598,21.6964061 C10.4130553,22.0217819 11.7618807,22.356353 13.4395292,22.356353 C13.86125,22.356353 14.2795663,22.3359234 14.6942655,22.3040516 C14.4317007,21.4254538 14.2795238,20.5052894 14.2795238,19.5506319 C14.2795663,13.8096219 19.3217037,9.15054871 25.7057727,9.15054871 L25.7057727,9.15054871 Z M18.4794963,5.58764238 C19.4913708,5.58764238 20.1616982,6.23856036 20.1616982,7.22741977 C20.1616982,8.2122432 19.4913708,8.87223176 18.4794963,8.87223176 C17.4721327,8.87223176 16.4614073,8.21232642 16.4614073,7.22741977 C16.4614073,6.23860197 17.4721327,5.58764238 18.4794538,5.58764238 L18.4794963,5.58764238 Z M9.07354934,8.87227337 C8.06627085,8.87227337 7.04971535,8.21236802 7.04971535,7.22746138 C7.04971535,6.23860197 8.0662283,5.58768399 9.07354934,5.58768399 C10.0808278,5.58768399 10.7511553,6.23860197 10.7511553,7.22746138 C10.7511553,8.21232642 10.0807853,8.87227337 9.07354934,8.87227337 L9.07354934,8.87227337 Z" id="形状" fill="#037A29"></path>
                <path d="M30.5076043,12 C36.5871693,12 42,16.4112828 42,21.8230901 C42,24.8758814 39.97662,27.5788492 37.2608011,29.6172722 L37.2608011,29.6172722 L38.2783603,33 L34.5673023,30.9669774 C33.214041,31.3063002 31.8549963,31.6461803 30.5076043,31.6461803 C24.0701028,31.6461803 19,27.2442409 19,21.8230901 C19,16.4113257 24.0701028,12 30.5076043,12 Z M31,22 C29.3431458,22 28,23.3431458 28,25 C28,26.6568542 29.3431458,26.2453095 31,26.2453095 C32.6568542,26.2453095 34,26.6568542 34,25 C34,23.3431458 32.6568542,22 31,22 Z M26.7765395,17.421108 C26.1028649,17.421108 25.423364,18.1003966 25.423364,18.7748848 C25.423364,19.458888 26.1028649,20.1293475 26.7765395,20.1293475 C27.8000536,20.1293475 28.4702153,19.458888 28.4702153,18.7748848 C28.4702153,18.1003966 27.8000536,17.421108 26.7765395,17.421108 Z M34.218748,17.421108 C33.549743,17.421108 32.8748689,18.1003966 32.8748689,18.7748848 C32.8748689,19.458888 33.5497002,20.1293475 34.218748,20.1293475 C35.2327514,20.1293475 35.9122952,19.458888 35.9122952,18.7748848 C35.9122952,18.1003966 35.2327514,17.421108 34.218748,17.421108 Z" id="形状结合" fill="#0FBA46"></path>
            </g>
        </g>
    </g>
</svg>