<?xml version="1.0" encoding="UTF-8"?>
<svg width="97px" height="29px" viewBox="0 0 97 29" version="1.1" xmlns="http://www.w3.org/2000/svg" xmlns:xlink="http://www.w3.org/1999/xlink">
    <title>编组 6</title>
    <g id="页面-1" stroke="none" stroke-width="1" fill="none" fill-rule="evenodd">
        <g id="桌面端-HD备份-2" transform="translate(-25.000000, -24.000000)" fill-rule="nonzero">
            <g id="编组-5" transform="translate(25.000000, 24.700000)">
                <g id="编组-6" transform="translate(0.387500, 0.000000)">
                    <path d="M96.175,2.27373675e-13 L95.225,4.8 L85.125,4.8 L81.775,28.3 L72.175,28.3 L75.525,4.8 L69.7375,4.8 L74.0375,2.27373675e-13 L96.175,2.27373675e-13 Z" id="形状结合" fill="#0FBA46"></path>
                    <path d="M87.0375,2.27373675e-13 L74.5875,13.9 L82.0465,26.391 L81.775,28.3 L72.175,28.3 L75.525,4.8 L69.7375,4.8 L74.0375,0 L87.0375,2.27373675e-13 Z" id="形状结合" fill="#09802F"></path>
                    <polygon id="路径" fill="#0FBA46" points="12.95 28.3 18.7 14.4 20.65 28.3 29.3 28.3 40.8 2.27373675e-13 32.65 2.27373675e-13 25.9 17.25 24.5 0.95 16.8 0.95 10.55 17.25 9.1 2.27373675e-13 0 2.27373675e-13 0.95 0.95 4.3 28.3"></polygon>
                    <polygon id="路径" fill="#0FBA46" points="46.0875 28.3 53.2875 19.65 57.5875 28.3 67.1875 28.3 58.5875 13.9 71.0375 2.27373675e-13 59.5375 2.27373675e-13 60.4875 0.95 54.7375 8.15 50.3875 2.27373675e-13 40.3375 2.27373675e-13 41.7875 1.4 48.9875 13.9 36.4875 28.3"></polygon>
                </g>
            </g>
        </g>
    </g>
</svg>